<?xml version="1.0" encoding="UTF-8" standalone="no"?>
<svg
   xmlns:dc="http://purl.org/dc/elements/1.1/"
   xmlns:cc="http://creativecommons.org/ns#"
   xmlns:rdf="http://www.w3.org/1999/02/22-rdf-syntax-ns#"
   xmlns:svg="http://www.w3.org/2000/svg"
   xmlns="http://www.w3.org/2000/svg"
   viewBox="0 0 2653.3333 1321.76"
   height="1321.76"
   width="2653.3333"
   xml:space="preserve"
   id="svg2"
   version="1.1"><metadata
     id="metadata8"><rdf:RDF><cc:Work
         rdf:about=""><dc:format>image/svg+xml</dc:format><dc:type
           rdf:resource="http://purl.org/dc/dcmitype/StillImage" /></cc:Work></rdf:RDF></metadata><defs
     id="defs6" /><g
     transform="matrix(1.3333333,0,0,-1.3333333,0,1321.76)"
     id="g10"><g
       transform="scale(0.1)"
       id="g12"><path
         id="path14"
         style="fill:#231f20;fill-opacity:1;fill-rule:nonzero;stroke:none"
         d="m 3546.32,5052.17 c -1.78,-0.46 -3.65,-2.06 -3.93,-4.01 -0.4,-2.61 1.6,-5.2 4.17,-5.59 221.57,-87.43 608.67,-13.82 1046.22,282.04 453.65,306.65 732.48,1086.07 309.78,1556.04 -452.8,503.49 -1697.99,366.96 -2357.78,-535.94 -582.8,-797.54 -452.69,-2449.1 1257.6,-2478.41 694.6,-11.94 1194.52,135.18 1650.33,438.88 799.4,532.62 1332.28,1437.14 1795.08,2214.82 655.91,1102.18 1280.19,2137.83 2348.92,2834.02 943.49,614.64 1464.19,538.14 1881.79,375.43 283.1,-110.3 544.5,-504.41 525,-978.71 -11.9,-292.98 -125.6,-620.77 -421.9,-922.2 -823.9,-838.19 -1767.78,-589.72 -1767.78,-589.72 -2.35,1.17 -5.26,0.21 -6.4,-2.11 -0.93,-1.92 -0.52,-4.14 0.89,-5.56 0,0 88.06,-105.75 348.69,-147.01 450.4,-71.38 1250.5,123.25 1630.5,662.63 270.1,383.13 355.3,711.5 356.1,995.39 1.5,533.91 -342.6,900.11 -667.5,1045.31 -248.7,111.21 -821.8,229.53 -1521.58,-31.06 -179.12,-66.7 -404.73,-163.36 -591.03,-285.77 C 8261.99,8746.87 7666.56,8023.37 6804.67,6613.32 6504.4,6122.09 6072.91,5389.8 5589.76,4829.3 5105.41,4267.49 4592.1,3920.49 3802.38,3932.06 2153.46,3956.16 2432.2,5624.98 2902.67,6285.94 3523.45,7158.03 4466.01,7238.64 4845.78,6870.6 5198,6529.28 4821.01,5692.28 4410.23,5373.03 4085.42,5120.61 3805,5067.73 3546.32,5052.17" /><path
         id="path16"
         style="fill:#231f20;fill-opacity:1;fill-rule:nonzero;stroke:none"
         d="m 7283.76,6422.34 c -35.69,25.39 -70.36,115.67 141.73,134.92 212.08,19.24 356.33,-102.48 356.33,-102.48 -290.49,-112.61 -462.37,-57.83 -498.06,-32.44 z m 1602.76,2424.7 c -806.6,677.34 -2102.1,349.26 -2680.7,-9.97 -198.06,-122.97 -474.12,-331.6 -699.04,-584.35 -312.21,-350.81 -527.25,-785.92 -310.37,-1188.67 126.9,-235.66 358.82,-328.65 584.96,-340.19 424.48,-21.68 899.02,249.49 1111.11,442.67 275.09,250.54 698.36,626.21 626.27,1220.65 -0.57,1.59 -2.29,3.49 -4.08,3.78 -2.59,0.4 -5.21,-1.44 -5.63,-4.01 -136.54,-555.56 -451.41,-833.36 -701.79,-1069.17 -228.13,-214.84 -782.89,-482.72 -1059.12,-481.38 -198.45,0.97 -377.6,19.91 -477.31,202.78 -161.51,296.19 42.59,716.91 341.21,1069.74 215.68,254.83 466.54,437.95 685.53,574.82 167.54,104.71 400.86,210.19 640.14,299.17 413.3,153.72 888.06,252.68 1304.71,122.82 154.11,-48.05 313.43,-125 449.91,-245.69 661.74,-584.95 134.82,-1507.1 -145.23,-1843.67 -245.17,-294.67 -461.32,-426.21 -574.12,-480.13 -125.38,62.35 -333.9,137.94 -579.72,115.62 -402.96,-36.56 -289.65,-238.36 -221.83,-286.55 33.5,-23.81 106.53,-61.22 269.34,-63.01 116.73,-1.26 291.61,21.65 456.82,74.56 98.65,-93.95 328.92,-413.5 31.87,-1182.74 -167.33,-433.29 -397.63,-744.11 -609.21,-930.97 -245.21,-216.52 -422.88,-291.11 -542.36,-297.94 -185.55,-10.63 -665.07,113.7 -289.92,917.45 276.63,592.68 1024.21,1019.66 1024.21,1019.66 0.57,0.26 1.41,1.08 1.65,1.7 0.49,1.19 -0.12,2.5 -1.35,2.98 0,0 -50.04,43.95 -305.89,-95.59 -255.85,-139.55 -789.41,-575.15 -919.17,-1066.27 -136.44,-516.38 48.58,-883.33 518.15,-871.1 460.13,11.99 905.26,190.69 1355.9,781.55 413.63,542.33 419.29,1441.82 -58.1,1800.32 132.79,49.04 592.55,220.93 939.4,627.57 305.61,358.32 576.99,1147.81 -156.24,1763.56" /><g
         transform="scale(1.08747)"
         id="g18"><path
           id="path20"
           style="fill:#231f20;fill-opacity:1;fill-rule:nonzero;stroke:none"
           d="m 10674.4,4439.37 c -36.5,1.56 -65,-0.49 -87.3,-4.98 221.6,268.64 454.6,548.91 630.3,713.61 502.5,471.24 668.7,454.42 629.2,176.22 -32.5,-229.67 -477.1,-894.02 -935.2,-950.97 -59.2,31.31 -140.4,61.99 -237,66.12 z M 8301.44,3665 c -207.31,2.99 -133.62,285.01 209.26,859.33 300.3,503 709.03,945.42 918.23,947.78 118.99,1.37 186.3,-106.09 156.23,-258.87 -6.8,-34.94 -20.41,-70.32 -40.92,-109.49 -5.05,-9.63 -11.77,-21.44 -19.12,-34.19 0,0 -516.93,-747.84 -558.28,-822.31 C 8694.55,3883.7 8473.96,3662.51 8301.44,3665 Z m 4360.16,4082.81 c 348.1,497.4 532.1,609.57 615.8,564.4 83.7,-45.16 41.2,-238.66 -12,-370.58 -156.3,-388.45 -1080.4,-1417.78 -1882,-2192.09 0,0 581.2,1002.62 1278.2,1998.27 z m 235.1,-2650.52 c 462.8,474.03 622,488.34 661.1,382.38 39.1,-105.96 -73.7,-393.87 -398.5,-767.04 -324.8,-373.17 -736.6,-470.65 -745.8,-316.31 76.8,162.86 226.5,438.01 483.2,700.97 z m 3401,636.3 c -1.7,1.28 -4.1,0.93 -5.4,-0.8 -494.6,-533.36 -839.3,-726.78 -996.1,-723.55 -156.8,3.22 -126.7,137.78 -126.7,137.78 410.5,164.85 425.7,361.63 396.5,434.69 -28,69.97 -165.8,59.46 -319.4,-69.82 -153.5,-129.29 -179.2,-294.73 -179.2,-294.73 -78.6,-25.88 -164.8,-72.7 -258.1,-133.09 101.1,314.9 43.4,522.25 -118.6,522.25 -172.6,0 -369.1,-162.53 -1013.7,-931.18 -210.2,-250.62 -394.7,-453.37 -559.4,-604.94 -339.1,-312.03 -587.4,-424.95 -757.1,-386.79 -233.8,52.58 -10.4,581.79 -10.4,581.79 685,-115.96 1140.8,520.52 1140.8,520.52 203.6,277.66 262.6,489.8 237.7,628.46 -22.2,124 -107.2,189.26 -285.3,190.1 -437.8,2.04 -957.6,-408 -1344,-1089.65 -54.9,-96.92 -94.8,-188.51 -121.7,-274.03 -434.5,-490.16 -756.5,-617.43 -876.5,-533.65 -128.8,89.9 15.1,305.85 5.4,460.66 -3.3,54.04 -38.5,96.92 -80,129.12 260,47.58 396,138.34 655.1,321.76 317.7,224.88 578.1,733.5 394.4,908.46 -187.3,178.49 -509.3,25.83 -747.8,-149.91 -284.4,-209.56 -669.4,-654.46 -720.6,-714.2 l 387.9,565.19 c 131,181.16 1460.2,1448.91 1891.1,1887.49 420.9,428.35 735.1,951.56 567.4,1177.34 -130,175.24 -382.6,53.68 -613,-107.94 -206.3,-144.6 -611.2,-700.12 -611.2,-700.12 L 10357.2,4771.5 c -71.2,-89.55 -284.6,-347.57 -673,-738.16 -470.72,-473.31 -662.99,-409.14 -622.67,-239.75 40.33,169.38 355.54,609.24 355.54,609.24 L 10225,5575.94 h -351.09 l -207,-300.46 c -3.4,209.17 -119.63,330.47 -321.94,328.8 -340.66,-2.79 -922.43,-523.6 -1243.35,-1089.65 -30.06,-53.01 -55.65,-104.49 -77.16,-154.23 -469.77,-484.43 -953.68,-767.46 -953.68,-767.46 -2.04,-1.26 -2.64,-3.94 -1.37,-5.99 0.84,-1.32 2.91,-2.06 4.35,-2.06 0,0 186.65,-24.05 875.51,539.66 -68.75,-347.1 88.52,-565.11 298.26,-564.08 144.8,0.7 364.95,123.12 593.39,325.52 -4.17,-46.68 -2.13,-92.78 9.11,-136.2 62.37,-241.08 365.1,-339.3 984.61,264.41 l -295.45,-428.01 h 329.57 c 0,0 448.84,533.7 651.34,766.88 4.9,-15.36 14.3,-28.89 22.9,-36.54 15.2,-13.65 49.5,-36.33 131.3,-47.8 47.4,-6.66 114.9,-8.03 184.9,-0.72 -29.3,-71.47 -168.4,-435.27 -33.4,-603.65 138.9,-172.98 576,-175.57 1112.3,393.91 -33.7,-308.27 128.2,-498.96 364.6,-497.8 285.6,1.39 666.5,77.73 1457.9,1071.53 0,0 717.7,874.71 836.1,822.57 99.9,-44.03 -162.1,-484.68 -370.9,-806.33 l -729.7,-1060.57 h 351.1 l 830.3,1205.54 c 0,0 161.8,253.24 384.2,326.56 0,0 -10.7,-194.26 179.1,-198.17 189.7,-3.91 589.3,150.02 1058,806.43 1.2,1.72 0.6,4.29 -1.1,5.56" /></g><g
         transform="scale(1.22086)"
         id="g22"><path
           id="path24"
           style="fill:none;stroke:#231f20;stroke-width:8.19095993;stroke-linecap:butt;stroke-linejoin:miter;stroke-miterlimit:4;stroke-dasharray:none;stroke-opacity:1"
           d="M 0,2390.71 H 16300" /></g><path
         id="path26"
         style="fill:#211d1d;fill-opacity:1;fill-rule:nonzero;stroke:none"
         d="m 2782.23,261.711 c 14.02,-222.2501 209.48,-124.121 209.48,-217.4415 0,-25.9804 -33.9,-25.9804 -63.41,-25.9804 -50.3,0 -142.91,10.5312 -248.82,10.5312 -82.38,0 -167.13,-10.5312 -233.21,-10.5312 -23.91,0 -29.12,13.1914 -29.12,24.0937 0,78.9372 166.82,20.9961 164.41,216.9962 l -26.58,1026.561 c 0,67.04 -13.7,103.32 -29.09,103.32 -18.35,0 -41.87,-23.06 -68.81,-78.97 L 1908.83,193.121 c -12.94,-23.902 -55.27,-132.4804 -82,-132.4804 -26.32,0 -45.09,58.2384 -52.87,76.9494 l -563.93,1180.68 c -7.83,21.1 -21.58,29.2 -31.76,29.2 -7.98,0 -15.76,-13.6 -18.97,-39.95 l -31.69,-929.29 c -12.99,-352.2495 238.42,-235.398 238.42,-331.1909 0,-26.3086 -29.11,-28.75 -66.28,-28.75 -33.9,0 -153.22,10.5312 -232.57,10.5312 -138.098,0 -182.555,-10.5312 -230.434,-10.5312 -18.754,0 -26.531,13.1914 -26.531,31.5937 0,90.1762 169.332,-18.4023 188.14,256.8872 31.705,431.781 63.045,712.23 63.045,992.77 0,622.4 -251.185,474.4 -251.185,563.71 0,23.92 21.176,29.55 44.73,29.55 47.844,0 95.313,-10.38 146.015,-10.38 47.45,0 95.33,10.38 143,10.38 36.51,0 42.31,-44.68 55.67,-74.19 L 1829.08,473.211 c 29.54,-55.031 40.24,-79.051 58.44,-79.051 13.12,0 39.88,55.512 81.97,143.281 l 630.42,1265.169 c 16.15,29.22 37.07,92.96 69.18,90.19 25.96,0 110.96,-10.38 124.49,-10.38 60.35,0 84.42,10.38 126.7,10.38 16.41,0 26.33,-15.94 26.33,-31.46 0,-85 -211.46,29.12 -201.22,-286.12 l 36.84,-1313.509" /><path
         id="path28"
         style="fill:#211d1d;fill-opacity:1;fill-rule:nonzero;stroke:none"
         d="m 4090.23,561.02 c 0,330.71 261.37,603.96 595.34,603.96 132.43,0 312.76,-37.43 320.77,-98.08 4.75,-58.57 2.41,-121.689 2.41,-156.47 0,-37.098 -8.41,-55.719 -21.18,-55.719 -26.75,0 -55.88,50.578 -63.88,60.641 -90.11,122.498 -206.21,161.868 -328.36,161.868 -225.01,0 -312.04,-233.048 -312.04,-423.329 0,-286 169.59,-521.809 468.48,-521.809 206.7,0 322.77,153.168 362.67,153.168 8.02,0 21.14,-7.969 21.14,-15.918 C 5135.58,227.383 4976.78,0 4614.14,0 4309.33,0 4090.23,266.961 4090.23,561.02" /><path
         id="path30"
         style="fill:#211d1d;fill-opacity:1;fill-rule:nonzero;stroke:none"
         d="m 7969.93,1002.97 c 21.2,0 71.36,10.42 71.36,-23.431 0,-55.508 -134.83,5.141 -134.83,-172.469 V 266.961 C 7633.58,179.969 7561.74,0 7091.32,0 c -585.73,0 -948.41,362.281 -948.41,950.34 0,571.82 428.89,966.45 990.31,966.45 457.66,0 590.48,-180.38 664.33,-180.38 29.11,0 39.86,47.89 69.06,47.89 36.67,0 26.31,-39.93 29.1,-60.63 l 26.68,-347.12 c 0,-21.18 -2.77,-47.93 -29.47,-47.93 -68.67,0 -187.51,511.52 -812.8,511.52 -476.39,0 -714.98,-402.17 -714.98,-839.43 0,-468.878 270.14,-916.1592 781.63,-916.1592 240.23,0 550.67,118.5192 550.67,343.9882 v 410.57 c 0,124.5 -230.67,68.59 -230.67,135.262 0,33.959 36.67,28.599 60.64,28.599 h 442.52" /><path
         id="path32"
         style="fill:#211d1d;fill-opacity:1;fill-rule:nonzero;stroke:none"
         d="m 9850.78,724.949 c 0,-423.32 275.32,-616.886 633.22,-616.886 496.7,0 611.2,328.449 611.2,640.437 v 858.27 c 0,270.09 -247,159.2 -247,259.71 0,12.78 19.3,26.32 26.8,26.32 103.4,0 207.1,-10.38 310,-10.38 50.4,0 98.1,10.38 145.7,10.38 12.7,0 34.3,-13.54 34.3,-29.55 0,-73.7 -155.6,-15.13 -155.6,-258.94 V 783.27 C 11209.4,653.891 11240.5,0 10469.7,0 9773.69,0 9641.76,389.063 9641.76,796.84 v 892.08 c 0,156.37 -214.74,92.57 -214.74,177.56 0,18.39 44.71,26.32 58.18,26.32 69.05,0 135.05,-10.38 206.78,-10.38 84.61,0 169.17,10.38 251.43,10.38 13.53,0 84.79,5.18 84.79,-26.32 0,-74.19 -177.42,0 -177.42,-190.7 V 724.949" /><path
         id="path34"
         style="fill:#211d1d;fill-opacity:1;fill-rule:nonzero;stroke:none"
         d="m 13055.4,1665.37 c -2.6,193.17 -214.5,139.99 -214.5,197.88 0,23.92 5.2,29.55 26.7,29.55 97.7,0 193.2,-10.38 291,-10.38 82.4,0 164.3,10.38 246,10.38 42.8,0 50.4,-5.63 50.4,-26.32 0,-63.87 -190.3,-3.23 -190.3,-201.11 V 243.063 c 0,-179.6841 235.8,-119.043 235.8,-198.7935 0,-18.289 -8.5,-25.9804 -53.1,-25.9804 -61.5,0 -175.1,10.5312 -288.8,10.5312 -161.7,0 -217.1,-10.5312 -253.9,-10.5312 -47.4,0 -55.9,13.1914 -55.9,39.4336 0,77.1603 206.6,-10.6836 206.6,250.9683 V 1665.37" /><g
         transform="scale(1.01813)"
         id="g36"><path
           id="path38"
           style="fill:#211d1d;fill-opacity:1;fill-rule:nonzero;stroke:none"
           d="m 15038.2,1016.47 c 0,-49.324 162.1,-36.34 283.9,-36.34 112.3,0 361.4,47.09 361.4,369.19 0,317.34 -241.6,423.89 -496.4,423.89 -93.7,0 -148.9,5.15 -148.9,-95.91 z M 15985,301.307 c 187.2,-286.0216 315,-189.659 315,-252.3124 0,-31.0312 -145.4,-31.0312 -168.8,-31.0312 -190.2,0 -291.7,132.9606 -390.4,280.7236 l -288.9,455.676 c -93.1,144.69 -54.4,137.174 -345.3,137.174 -83.4,0 -68.4,-46.643 -68.4,-72.886 V 269.574 c 0,-223.3725 270.6,-142.645 270.6,-230.8157 0,-26.3428 -23.8,-20.7949 -44.1,-20.7949 -23.3,0 -82.7,10.3437 -298.6,10.3437 -99.3,0 -198,-10.3437 -296.3,-10.3437 -15.8,0 -26.7,12.9565 -26.7,28.2381 0,65.4465 190,29.3584 190,226.1425 V 1596.56 c 0,249.24 -223.4,142.97 -223.4,231.64 0,15.24 21.2,30.9 51.9,30.9 46.9,0 33.6,-10.2 166.6,-10.2 150.3,0 299.3,10.2 434.1,10.2 41.6,0 616,52.14 616,-449.89 0,-203.05 -145.6,-376.98 -327.6,-449.979 L 15985,301.307" /></g><g
         transform="scale(1.17573)"
         id="g40"><path
           id="path42"
           style="fill:#211d1d;fill-opacity:1;fill-rule:nonzero;stroke:none"
           d="m 15484.5,955.025 c 0,-77.066 -4.3,-77.066 86.1,-77.066 h 243.1 c 233.9,0 173.1,180.161 227.5,180.161 17.6,0 24.1,-25.11 24.1,-42.53 0,-78.672 -3.7,-155.742 -3.7,-227.569 0,-58.458 3.7,-117.424 3.7,-178.21 0,-20.084 -8.5,-29.201 -24.1,-29.201 -69.9,0 6.4,197.929 -183,197.929 h -332.9 c -47.2,0 -40.8,-37.749 -40.8,-71.674 V 292.541 c 0,-133.056 -17.9,-187.058 171.2,-187.058 520.9,0 596.8,232.213 626.4,232.213 15.3,0 17.9,-22.692 17.9,-26.868 0,-81.752 -58.9,-160.147 -112.9,-218.917 -71.7,-81.1597 -121.8,-76.3555 -220.5,-76.3555 -171.1,0 -341.8,13.6451 -513.1,8.9572 -90.8,-2.4154 -185.1,-8.9572 -275,-8.9572 -20.7,0 -34.4,4.4321 -34.4,22.0973 4.9,27.7786 27.6,23.3897 99.3,59.0292 59.1,27.217 63.1,89.678 63.1,195.859 V 1319.07 c 0,101.81 0,210.02 -121.2,227.72 -18,4.09 -67.9,9.15 -67.9,36.35 0,17.93 13.6,26.75 79.1,26.75 425.5,0 542.6,-8.82 637,-8.82 45.5,0 252.6,8.82 322.3,8.82 18,0 22.4,-22.38 22.4,-49.16 0,-250.43 -31.5,-268.47 -45.4,-268.47 -53.6,0 -17.4,108.22 -53.6,160.21 -58.3,76.62 -292.6,62.75 -383.2,62.75 -215.8,0 -211.5,9.19 -211.5,-141.83 V 955.025" /></g></g></g></svg>